<?xml version="1.0" standalone="no"?>
<!DOCTYPE svg PUBLIC "-//W3C//DTD SVG 20010904//EN"
 "http://www.w3.org/TR/2001/REC-SVG-20010904/DTD/svg10.dtd">
<svg version="1.0" xmlns="http://www.w3.org/2000/svg"
 width="260.000000pt" height="260.000000pt" viewBox="0 0 260.000000 260.000000"
 preserveAspectRatio="xMidYMid meet">
<metadata>
Created by potrace 1.14, written by Peter Selinger 2001-2017
</metadata>
<g transform="translate(0.000000,260.000000) scale(0.100000,-0.100000)"
fill="#000000" stroke="none">
<path d="M470 2353 c-27 -25 -31 -36 -37 -105 -7 -85 -2 -82 -83 -80 -42 1
-89 -18 -110 -46 -31 -38 -25 -104 12 -139 25 -24 38 -28 99 -29 39 -2 72 -4
74 -6 2 -2 5 -36 8 -76 4 -52 10 -79 24 -94 41 -45 98 -55 147 -23 32 21 38
37 42 119 3 39 6 72 9 74 2 2 36 4 75 5 66 0 75 3 101 30 16 15 30 36 30 45 5
50 -4 79 -30 105 -25 25 -37 29 -101 33 -41 2 -75 5 -76 7 -2 1 -4 34 -5 72
-2 64 -5 73 -35 103 -43 43 -99 45 -144 5z"/>
<path d="M1340 2353 c-26 -24 -47 -77 -148 -383 l-119 -355 -209 -78 c-364
-136 -388 -147 -406 -170 -16 -23 -22 -51 -19 -92 4 -46 39 -67 254 -147 116
-43 219 -82 227 -85 8 -3 17 -7 20 -8 14 -5 50 -19 90 -35 l45 -19 93 -278
c51 -153 95 -285 97 -293 35 -128 67 -176 128 -190 29 -6 42 -3 70 16 41 27
32 5 163 399 58 176 110 327 115 336 4 9 30 24 56 34 26 9 82 30 123 46 41 15
125 47 185 69 202 76 234 91 256 122 17 23 20 39 16 71 -9 70 -12 71 -452 233
-81 30 -131 50 -163 67 -19 10 -42 70 -139 362 -129 390 -137 405 -212 405
-30 0 -48 -7 -71 -27z m100 -518 c7 -27 16 -54 20 -60 3 -5 26 -73 51 -149 30
-95 52 -147 70 -165 16 -17 84 -48 191 -89 92 -34 172 -62 179 -62 30 0 -34
-29 -186 -85 -115 -43 -167 -67 -185 -87 -17 -18 -42 -77 -70 -165 -24 -76
-47 -142 -51 -148 -3 -5 -12 -32 -19 -60 -25 -94 -33 -94 -65 3 -15 48 -31 92
-34 97 -3 6 -6 15 -7 20 -4 23 -64 198 -79 229 -19 40 -35 49 -232 123 -84 31
-153 60 -153 64 0 8 -10 4 185 76 169 62 203 86 220 153 0 3 9 30 20 60 11 30
20 57 20 60 1 7 55 171 62 190 8 20 8 20 18 53 7 26 8 27 20 10 6 -10 18 -40
25 -68z"/>
<path d="M630 860 c-64 -13 -90 -59 -90 -157 l0 -53 -61 0 c-99 0 -149 -35
-151 -106 -2 -71 46 -108 141 -110 l66 -1 6 -69 c8 -103 39 -144 109 -144 70
0 108 50 108 143 0 32 2 60 5 64 3 3 35 6 71 8 68 3 107 19 125 53 15 29 21
71 10 78 -5 3 -7 8 -5 12 6 10 -14 34 -44 55 -17 12 -45 17 -92 17 -64 0 -68
1 -69 23 -1 29 -6 109 -8 123 -2 19 -50 62 -74 66 -12 2 -33 1 -47 -2z"/>
</g>
</svg>
